<svg width="123" height="55" viewBox="0 0 123 55" fill="none" xmlns="http://www.w3.org/2000/svg">
<path d="M44.5902 51.0389C44.5902 51.5946 44.5532 52.0455 44.4811 52.3915C44.409 52.7374 44.2758 53.0043 44.0816 53.192C43.8874 53.3797 43.6155 53.5067 43.2677 53.5748C42.92 53.6429 42.4668 53.6778 41.9082 53.6778C41.4439 53.6778 40.9982 53.5913 40.5672 53.4165C40.1381 53.2417 39.7607 53.0006 39.4389 52.6914C39.1152 52.3823 38.8581 52.0216 38.6676 51.6057C38.477 51.1916 38.3809 50.7463 38.3809 50.2715C38.3809 49.7728 38.4678 49.3072 38.6435 48.8766C38.8192 48.4459 39.0634 48.0742 39.376 47.7595C39.6886 47.4448 40.0604 47.1983 40.4913 47.0197C40.9205 46.8412 41.3903 46.7529 41.8971 46.7529C42.0728 46.7529 42.2559 46.7529 42.4465 46.7492C42.637 46.7455 42.8275 46.7566 43.0162 46.7823C43.2048 46.8081 43.3787 46.8578 43.5433 46.9314C43.7061 47.0069 43.8411 47.1283 43.9484 47.2958C44.0242 47.4025 44.0723 47.535 44.0945 47.6933C44.1167 47.8515 44.1278 47.9951 44.1278 48.1184C44.1278 48.2251 44.1075 48.2969 44.0668 48.3337C44.0261 48.3705 43.9484 48.3907 43.8356 48.3907C43.5785 48.3907 43.3343 48.3595 43.1012 48.2969C42.8682 48.2343 42.6185 48.203 42.3484 48.203C41.6585 48.203 41.1572 48.3705 40.8446 48.7036C40.5302 49.0367 40.3748 49.5409 40.3748 50.2144C40.3748 50.5144 40.41 50.7868 40.4821 51.0334C40.5542 51.28 40.6652 51.4916 40.8169 51.6701C40.9667 51.8486 41.1591 51.9829 41.3903 52.0768C41.6215 52.1706 41.8953 52.2167 42.2078 52.2167C42.3521 52.2167 42.4576 52.2001 42.5278 52.1651C42.5963 52.1302 42.6462 52.0805 42.674 52.0161C42.7017 51.9498 42.7165 51.8707 42.7165 51.7768V51.4677C42.7165 51.256 42.6888 51.0941 42.6314 50.9818C42.5759 50.8696 42.4243 50.8125 42.1801 50.8125C42.1487 50.8125 42.1154 50.8125 42.0821 50.8181C42.0469 50.8217 42.0081 50.8236 41.9637 50.8236C41.7621 50.8236 41.6233 50.7665 41.5457 50.6506C41.468 50.5347 41.4273 50.3838 41.4273 50.196C41.4273 49.9274 41.4828 49.7286 41.5975 49.598C41.7103 49.4673 41.9082 49.401 42.1893 49.401C42.2966 49.401 42.4002 49.4047 42.5001 49.4102C42.6 49.4158 42.7036 49.4195 42.8108 49.4195C42.9681 49.4195 43.1234 49.4195 43.2807 49.425C43.4379 49.4305 43.5933 49.436 43.7505 49.4489C43.9817 49.4673 44.1593 49.5262 44.2813 49.6219C44.4034 49.7194 44.4867 49.885 44.531 50.1224C44.5625 50.2715 44.5791 50.4242 44.5828 50.5807C44.5865 50.7371 44.5884 50.8898 44.5884 51.0389H44.5902Z" fill="#F58220"/>
<path d="M48.1675 53.5271C48.0177 53.5271 47.8752 53.5271 47.7439 53.5216C47.6126 53.5179 47.496 53.494 47.3962 53.4461C47.2963 53.4001 47.2167 53.3247 47.1613 53.2216C47.1058 53.1186 47.0762 52.9732 47.0762 52.7873C47.0762 52.6254 47.1132 52.3843 47.189 52.0622C47.2648 51.7402 47.361 51.3777 47.4813 50.9728C47.5996 50.568 47.7365 50.1465 47.89 49.7104C48.0436 49.2742 48.2008 48.8676 48.3599 48.4885C48.5189 48.1112 48.6761 47.7836 48.8297 47.5058C48.9832 47.2279 49.1219 47.0494 49.2477 46.9684C49.355 46.8929 49.4604 46.8506 49.5677 46.8377C49.675 46.8249 49.7897 46.8193 49.9154 46.8193C50.1226 46.8193 50.2909 46.8396 50.4241 46.8801C50.5554 46.9205 50.6904 47.0254 50.8292 47.1929C50.9235 47.3107 51.0382 47.5131 51.1732 47.7965C51.3082 48.0799 51.447 48.4056 51.5912 48.7737C51.7355 49.1417 51.8779 49.5337 52.0185 49.9478C52.1591 50.3637 52.2867 50.7612 52.3996 51.1403C52.5124 51.5212 52.603 51.8635 52.6715 52.169C52.7399 52.4745 52.775 52.7082 52.775 52.8701C52.775 53.0321 52.7288 53.1664 52.6382 53.2547C52.5475 53.3412 52.4365 53.4075 52.3052 53.4517C52.1739 53.4958 52.0333 53.5197 51.8816 53.5271C51.7318 53.5326 51.5968 53.5363 51.4766 53.5363C51.2879 53.5363 51.1621 53.505 51.0955 53.4424C51.0289 53.3799 50.9882 53.3026 50.9734 53.2087C50.9586 53.1149 50.9494 53.0155 50.9494 52.9088C50.9494 52.802 50.9198 52.7027 50.8606 52.6088C50.8014 52.515 50.6886 52.4377 50.5258 52.3751C50.3631 52.3125 50.1152 52.2812 49.7823 52.2812C49.5067 52.2812 49.3069 52.3125 49.1848 52.3751C49.0627 52.4377 48.9795 52.515 48.9351 52.6088C48.8907 52.7027 48.8704 52.8002 48.8704 52.9033C48.8704 53.0063 48.8556 53.1038 48.8278 53.1977C48.8001 53.2915 48.739 53.3688 48.6447 53.4314C48.5504 53.494 48.3913 53.5253 48.1656 53.5253L48.1675 53.5271ZM50.0486 50.9066C50.1429 50.9066 50.2225 50.8808 50.2891 50.8274C50.3557 50.7741 50.3871 50.6949 50.3871 50.5882C50.3871 50.5312 50.3723 50.4152 50.3409 50.2367C50.3094 50.0582 50.2724 49.8742 50.228 49.6791C50.1836 49.4859 50.1337 49.3129 50.0782 49.1602C50.0209 49.0074 49.9617 48.9301 49.8988 48.9301C49.8544 48.9301 49.8044 49.0074 49.749 49.1602C49.6935 49.3129 49.6398 49.4877 49.5899 49.6846C49.5399 49.8815 49.4993 50.0692 49.4678 50.2514C49.4364 50.4318 49.4216 50.5477 49.4216 50.5974C49.4216 50.7281 49.466 50.8127 49.5529 50.8495C49.6398 50.8863 49.7379 50.9047 49.8451 50.9047H50.0523L50.0486 50.9066Z" fill="#F58220"/>
<path d="M57.1329 52.8536C57.1329 53.0781 57.096 53.2455 57.0238 53.3596C56.9517 53.4719 56.7926 53.5289 56.5484 53.5289C56.4356 53.5289 56.3246 53.5234 56.2137 53.5142C56.1045 53.505 55.9991 53.4719 55.8992 53.4167C55.7993 53.3615 55.7124 53.2547 55.6403 53.0983C55.5681 52.9419 55.5108 52.7597 55.4664 52.5518C55.422 52.3438 55.3887 52.1211 55.3628 51.8874C55.3369 51.6537 55.3203 51.4218 55.311 51.1955C55.3018 50.9673 55.2962 50.7593 55.2925 50.568C55.2888 50.3784 55.2888 50.2294 55.2888 50.1226C55.2888 49.9533 55.2925 49.749 55.2981 49.5043C55.3036 49.2614 55.3203 49.0074 55.3443 48.7461C55.3702 48.4848 55.4016 48.2327 55.4423 47.9934C55.483 47.7542 55.5348 47.561 55.5977 47.4174C55.6532 47.3181 55.7179 47.2279 55.7901 47.1469C55.8622 47.0659 55.9547 47.0089 56.0675 46.9776C56.1674 46.9463 56.271 46.9242 56.3783 46.9114C56.4856 46.8985 56.591 46.8929 56.6983 46.8929C56.7741 46.8929 56.8481 46.8985 56.9239 46.9114C56.9998 46.9242 57.0719 46.9463 57.1403 46.9776C57.2476 47.0218 57.3475 47.1303 57.4418 47.3052C57.5362 47.48 57.6287 47.6824 57.7193 47.9125C57.8099 48.1425 57.8987 48.3872 57.9875 48.6467C58.0744 48.9062 58.1595 49.1436 58.2409 49.3626C58.3223 49.5816 58.4074 49.7601 58.4943 49.8999C58.5812 50.0398 58.6663 50.1097 58.7477 50.1097C58.8605 50.1097 58.9641 50.0472 59.0585 49.922C59.1528 49.7969 59.2453 49.6386 59.3359 49.4454C59.4266 49.2522 59.5153 49.0369 59.5986 48.7995C59.6837 48.5621 59.765 48.3339 59.8427 48.1112C59.9204 47.8904 59.9963 47.6898 60.0684 47.5131C60.1405 47.3346 60.2108 47.2095 60.2793 47.134C60.3976 46.996 60.5475 46.9224 60.725 46.9095C60.9044 46.8966 61.0746 46.8911 61.2374 46.8911C61.4002 46.8911 61.5555 46.9224 61.685 46.985C61.8126 47.0475 61.9162 47.1561 61.9902 47.3125C62.0901 47.4929 62.1659 47.6953 62.2159 47.9198C62.2658 48.1443 62.3028 48.3744 62.3287 48.6118C62.3546 48.8492 62.3694 49.0865 62.3749 49.3221C62.3805 49.5595 62.3842 49.7803 62.3842 49.9864C62.3842 50.0932 62.3842 50.1962 62.3879 50.2956C62.3916 50.395 62.3934 50.498 62.3934 50.6048C62.3934 50.7925 62.3879 51.0096 62.3786 51.2599C62.3694 51.5102 62.3472 51.7623 62.3121 52.0181C62.2769 52.2739 62.2233 52.515 62.1474 52.7376C62.0716 52.9621 61.9717 53.1499 61.8459 53.2989C61.7386 53.4241 61.6221 53.4903 61.4926 53.4995C61.365 53.5087 61.2189 53.5142 61.0561 53.5142C60.8231 53.5142 60.6714 53.4609 60.5992 53.356C60.5271 53.2492 60.4901 53.0873 60.4901 52.8701C60.4901 52.515 60.4957 52.1598 60.5086 51.8083C60.5216 51.4568 60.5271 51.1016 60.5271 50.7465C60.5271 50.671 60.5197 50.6048 60.5031 50.5459C60.4883 50.487 60.4698 50.4226 60.4513 50.3545C60.3754 50.3545 60.3162 50.4005 60.2719 50.4907C60.2275 50.5808 60.1831 50.6949 60.1405 50.833C60.0961 50.971 60.0462 51.12 59.9907 51.282C59.9352 51.4439 59.8575 51.5948 59.7595 51.731C59.6615 51.869 59.5357 51.9813 59.3785 52.0733C59.2212 52.1635 59.0215 52.2095 58.7773 52.2095C58.5572 52.2095 58.3759 52.1635 58.2317 52.0733C58.0874 51.9831 57.9672 51.8709 57.8691 51.7365C57.7711 51.6022 57.6916 51.4531 57.6287 51.2875C57.5658 51.1219 57.5121 50.9728 57.4696 50.8385C57.4252 50.7041 57.3827 50.5919 57.342 50.5017C57.3013 50.4115 57.2495 50.3655 57.1866 50.3655C57.1607 50.3839 57.1422 50.4336 57.1292 50.5146C57.1163 50.5956 57.1071 50.6876 57.1015 50.7906C57.096 50.8937 57.0923 50.9912 57.0923 51.0851V51.282C57.0923 51.5433 57.0978 51.8046 57.1071 52.0641C57.1163 52.3236 57.1219 52.5867 57.1219 52.8554L57.1329 52.8536Z" fill="#F58220"/>
<path d="M66.9732 51.5911C66.9732 51.9279 67.1489 52.0972 67.5003 52.0972C67.7704 52.0972 68.0367 52.0935 68.2994 52.0824C68.562 52.0732 68.8284 52.0677 69.0984 52.0677C69.337 52.0677 69.4869 52.11 69.5498 52.1947C69.6126 52.2793 69.6441 52.4302 69.6441 52.6492C69.6441 52.8498 69.5941 53.0118 69.4943 53.1351C69.3944 53.2602 69.2668 53.3559 69.1132 53.4258C68.9597 53.4939 68.7932 53.5399 68.6138 53.562C68.4344 53.5841 68.2679 53.5951 68.1107 53.5951C67.9405 53.5951 67.7667 53.5951 67.5835 53.5988C67.4023 53.6025 67.2192 53.5988 67.0379 53.5896C66.8566 53.5804 66.6772 53.5602 66.5015 53.5289C66.3258 53.4976 66.1574 53.4516 65.9928 53.389C65.6414 53.2455 65.4009 53.0357 65.2733 52.7615C65.1438 52.4873 65.068 52.1689 65.0421 51.8064C65.0291 51.569 65.0199 51.3353 65.0143 51.1053C65.0088 50.8752 65.0051 50.6397 65.0051 50.4041C65.0051 50.2109 65.0051 50.0213 65.0014 49.8336C64.9977 49.6459 64.9958 49.4564 64.9958 49.2632C64.9958 48.6577 65.0624 48.1903 65.1975 47.859C65.3325 47.5278 65.5323 47.2867 65.7986 47.134C66.065 46.9812 66.3961 46.8929 66.79 46.8671C67.184 46.8414 67.6427 46.8303 68.1625 46.8303C68.3752 46.8303 68.6009 46.8579 68.8395 46.915C69.0781 46.972 69.276 47.0843 69.4314 47.2517C69.5183 47.3456 69.5775 47.4579 69.6052 47.5885C69.633 47.7192 69.6478 47.8498 69.6478 47.9823C69.6478 48.0817 69.6145 48.159 69.5498 48.2124C69.485 48.2657 69.4018 48.3062 69.3056 48.3338C69.2076 48.3614 69.1058 48.378 69.0004 48.3798C68.895 48.3817 68.8062 48.3835 68.7377 48.3835C68.575 48.3835 68.4141 48.3761 68.2587 48.3596C68.1015 48.3449 67.9461 48.3357 67.7889 48.3357C67.6501 48.3357 67.5299 48.3393 67.4263 48.3449C67.3227 48.3504 67.2377 48.3725 67.1729 48.4111C67.1082 48.4498 67.0582 48.5105 67.0268 48.5988C66.9953 48.6853 66.9806 48.8086 66.9806 48.9632C66.9806 49.081 67.012 49.173 67.0749 49.2392C67.1378 49.3055 67.2155 49.3552 67.3098 49.3883C67.4041 49.4214 67.5059 49.4435 67.615 49.449C67.7241 49.4545 67.8203 49.4582 67.9017 49.4582C68.046 49.4582 68.1884 49.4545 68.329 49.4435C68.4695 49.4343 68.6157 49.4288 68.7655 49.4288C68.8839 49.4288 69.0078 49.4435 69.1373 49.4748C69.2649 49.5061 69.3703 49.5723 69.4517 49.6717C69.5017 49.7343 69.5294 49.8226 69.5368 49.9385C69.5424 50.0545 69.5461 50.1483 69.5461 50.2238C69.5461 50.2919 69.5405 50.3618 69.5276 50.4299C69.5146 50.498 69.4924 50.5569 69.461 50.6084C69.4166 50.671 69.3315 50.7188 69.202 50.7538C69.0725 50.7887 68.932 50.8108 68.7784 50.82C68.6249 50.8292 68.4751 50.8329 68.3308 50.8292C68.1865 50.8255 68.0774 50.8255 68.0016 50.8255H67.7907C67.7056 50.8255 67.6205 50.8255 67.5373 50.8292C67.4522 50.8329 67.3708 50.8439 67.2931 50.8623C67.2155 50.8807 67.1544 50.9083 67.11 50.947C67.0786 50.9783 67.0545 51.0132 67.0397 51.05C67.0249 51.0869 67.0101 51.131 66.9972 51.1807C66.9843 51.2488 66.9769 51.3169 66.9732 51.3813C66.9695 51.4475 66.9676 51.5175 66.9676 51.5911H66.9732Z" fill="#F58220"/>
<path d="M74.2073 52.7504C74.2073 52.8572 74.2017 52.9584 74.1925 53.0541C74.1832 53.1516 74.161 53.2344 74.1259 53.3062C74.0907 53.378 74.0371 53.435 73.9613 53.4792C73.8854 53.5234 73.78 53.5454 73.6413 53.5454C73.5155 53.5454 73.3897 53.5418 73.2658 53.5307C73.14 53.5215 73.0179 53.4884 72.8996 53.4332C72.7867 53.389 72.6924 53.2878 72.6184 53.1295C72.5426 52.9713 72.4815 52.7799 72.4353 52.5591C72.389 52.3382 72.3539 52.099 72.3317 51.8432C72.3095 51.5874 72.2947 51.3408 72.2892 51.1034C72.2836 50.866 72.2799 50.6489 72.2799 50.4483V49.9992C72.2799 49.6625 72.2892 49.3294 72.3077 48.9981C72.3262 48.6669 72.3613 48.3393 72.4112 48.0154C72.4242 47.94 72.439 47.8627 72.4575 47.7817C72.476 47.7008 72.5 47.6161 72.5278 47.5296C72.5555 47.4431 72.5925 47.3603 72.6369 47.2867C72.6813 47.2112 72.7275 47.1487 72.7775 47.099C72.8848 47.0125 73.0364 46.9426 73.2343 46.8929C73.4323 46.8432 73.6413 46.8064 73.8651 46.7806C74.0889 46.7549 74.3072 46.742 74.5236 46.7383C74.74 46.7346 74.9194 46.7346 75.0637 46.7346C75.3892 46.7346 75.7129 46.7806 76.0329 46.8745C76.3529 46.9683 76.6415 47.1082 76.8986 47.2959C77.1557 47.4836 77.3647 47.7155 77.5238 47.9934C77.6828 48.2712 77.7642 48.5878 77.7642 48.9429C77.7642 49.0736 77.7513 49.1969 77.7272 49.3128C77.7013 49.4288 77.6551 49.5429 77.5866 49.6551C77.4794 49.8171 77.3573 49.968 77.2204 50.1097C77.0835 50.2514 76.9319 50.3728 76.7691 50.4796C76.7506 50.4924 76.7136 50.5164 76.6618 50.5495C76.6082 50.5845 76.5823 50.6139 76.5823 50.6378C76.5823 50.6562 76.5971 50.6838 76.6285 50.7225C76.66 50.7593 76.6951 50.7979 76.7321 50.8347C76.7691 50.8715 76.8061 50.9083 76.8412 50.9433L76.9115 51.0132C76.9799 51.0942 77.0595 51.2322 77.1464 51.4255C77.2333 51.6187 77.3166 51.8285 77.3961 52.053C77.4757 52.2775 77.5404 52.4928 77.594 52.6989C77.6477 52.905 77.6736 53.0633 77.6736 53.1755C77.6736 53.2565 77.6199 53.3228 77.5145 53.3725C77.4072 53.4221 77.2851 53.4608 77.1483 53.4902C77.0114 53.5197 76.8727 53.5362 76.7339 53.5473C76.5952 53.5565 76.499 53.562 76.4417 53.562C76.2345 53.562 76.0773 53.505 75.9719 53.389C75.8646 53.2731 75.7814 53.1277 75.7222 52.9547C75.663 52.7799 75.613 52.5922 75.5723 52.3934C75.5316 52.1947 75.4706 52.0088 75.3892 51.8358C75.3078 51.6647 75.195 51.5211 75.0507 51.4052C74.9065 51.2893 74.6993 51.2322 74.4292 51.2322C74.3737 51.2322 74.3257 51.2654 74.2887 51.3298C74.2517 51.3942 74.2258 51.4751 74.2128 51.569C74.1999 51.6628 74.1925 51.7549 74.1888 51.845C74.1851 51.9352 74.1832 52.0033 74.1832 52.0456C74.1832 52.1579 74.1888 52.2738 74.198 52.3916C74.2073 52.5094 74.2128 52.6327 74.2128 52.756L74.2073 52.7504ZM74.1888 49.4288C74.1888 49.5226 74.2036 49.622 74.2313 49.7287C74.2591 49.8355 74.3331 49.887 74.4514 49.887C74.6272 49.887 74.7973 49.8796 74.9638 49.8631C75.1303 49.8483 75.2764 49.8079 75.4003 49.7453C75.5261 49.6827 75.626 49.5889 75.7018 49.4656C75.7777 49.3404 75.8146 49.1693 75.8146 48.9503C75.8146 48.8252 75.7869 48.7111 75.7296 48.608C75.6722 48.505 75.5982 48.4185 75.5039 48.3467C75.4096 48.2749 75.3041 48.2197 75.1895 48.1829C75.0748 48.1461 74.9582 48.1259 74.8454 48.1259H74.5624C74.4181 48.1259 74.3201 48.1737 74.2665 48.2712C74.2128 48.3688 74.1869 48.4792 74.1869 48.6025V49.4251L74.1888 49.4288Z" fill="#F58220"/>
<path d="M82.7028 48.1755C82.5271 48.1755 82.3662 48.2123 82.2182 48.2878C82.0703 48.3632 81.9981 48.4994 81.9981 48.7C81.9981 48.8619 82.0758 48.9944 82.2293 49.0975C82.3828 49.2006 82.5734 49.2944 82.8027 49.3772C83.0321 49.4619 83.2799 49.552 83.5463 49.6477C83.8127 49.7453 84.0605 49.8667 84.2899 50.0121C84.5192 50.1593 84.7097 50.347 84.8633 50.5789C85.0168 50.8089 85.0945 51.0997 85.0945 51.4494C85.0945 51.799 85.0242 52.11 84.8836 52.3842C84.743 52.6584 84.5544 52.8921 84.3195 53.0854C84.0846 53.2786 83.8164 53.4276 83.5149 53.5344C83.2134 53.6411 82.8971 53.6926 82.5641 53.6926C82.2312 53.6926 81.9426 53.6761 81.6615 53.6411C81.3803 53.6062 81.1325 53.5325 80.9235 53.4166C80.7126 53.3007 80.5461 53.1295 80.4203 52.9013C80.2946 52.6731 80.2317 52.3695 80.2317 51.9886C80.2317 51.9444 80.2372 51.9039 80.2502 51.8671C80.2631 51.8303 80.2946 51.8101 80.3445 51.8101C80.4888 51.8101 80.6368 51.8358 80.7866 51.8855C80.9364 51.9352 81.0807 51.983 81.2194 52.0254C81.3951 52.0751 81.5708 52.1229 81.7466 52.1652C81.9223 52.2094 82.1035 52.2315 82.2922 52.2315C82.3791 52.2315 82.4716 52.2241 82.5641 52.2075C82.6585 52.1928 82.7435 52.1615 82.8175 52.1192C82.8934 52.075 82.9562 52.018 83.0099 51.9462C83.0635 51.8745 83.0894 51.7861 83.0894 51.6794C83.0894 51.58 83.0728 51.4917 83.0376 51.4181C83.0025 51.3426 82.9452 51.2782 82.8638 51.2212C82.7454 51.1273 82.6141 51.0629 82.4735 51.0298C82.3329 50.9967 82.1905 50.9598 82.0462 50.923C81.8076 50.855 81.5671 50.7574 81.3267 50.6323C81.0844 50.5071 80.868 50.3581 80.6737 50.1833C80.4795 50.0084 80.3205 49.8078 80.1984 49.5797C80.0763 49.3515 80.0153 49.103 80.0153 48.8362C80.0153 48.481 80.0911 48.1737 80.2465 47.9142C80.4 47.6547 80.5998 47.4376 80.8476 47.2591C81.0955 47.0806 81.3748 46.9499 81.6837 46.8653C81.9944 46.7806 82.3089 46.7383 82.6289 46.7383C82.923 46.7383 83.206 46.7456 83.476 46.7622C83.7461 46.7769 83.9828 46.8321 84.1863 46.926C84.3898 47.0198 84.5525 47.1689 84.6746 47.375C84.7967 47.5811 84.8577 47.8682 84.8577 48.2363C84.8577 48.3982 84.7763 48.4792 84.6136 48.4792C84.4693 48.4792 84.325 48.4626 84.1807 48.4276C84.0365 48.3945 83.8959 48.3614 83.7572 48.3301C83.587 48.2859 83.4131 48.2491 83.2356 48.2179C83.0561 48.1866 82.8804 48.1718 82.7047 48.1718L82.7028 48.1755Z" fill="#F58220"/>
<path d="M73.2788 18.4626L72.5574 15.7924C72.4039 15.2201 71.8083 14.8796 71.233 15.0342L70.4173 15.2513L60.6344 17.8645C60.0573 18.0209 59.7151 18.6098 59.8723 19.184L60.59 21.8524C60.7435 22.4247 61.3391 22.767 61.9144 22.6106L64.2764 21.9793C64.5797 21.8984 64.8812 22.0898 64.9534 22.3934C64.9682 22.456 64.9867 22.5167 65.007 22.5774L66.0817 25.6838C66.1538 25.8936 66.0465 26.1347 65.8375 26.212C61.9107 27.6492 57.5824 26.0666 55.9528 22.4909C54.24 18.7313 56.1563 14.1913 60.233 12.3529C61.7423 11.672 63.3386 11.4567 64.8368 11.6499C65.0533 11.6739 65.2697 11.7107 65.4824 11.7585C65.4916 11.7585 65.4972 11.7585 65.5064 11.7622C66.5589 11.9297 67.5522 11.223 67.7334 10.1759L68.157 7.72098C68.3383 6.66466 67.6262 5.6654 66.5663 5.48321L66.2204 5.42249C66.2075 5.4188 66.1927 5.42064 66.1797 5.41696C63.4089 5.04523 60.4531 5.43353 57.6545 6.69595C56.5003 7.21674 55.4423 7.85532 54.486 8.58958C49.2662 12.5995 47.1706 19.4379 49.8211 25.2532C52.714 31.6021 60.2533 34.5226 67.2655 32.2904C67.5947 32.1855 67.9184 32.0714 68.2421 31.9444L68.3253 32.1855L69.0116 34.1674C69.3519 35.1501 70.4303 35.6728 71.4162 35.3342L74.605 34.241C75.5909 33.9024 76.118 32.8332 75.7759 31.8505C75.7759 31.8505 73.4268 19.0294 73.2732 18.4571L73.2788 18.4626Z" fill="#F58220"/>
<path d="M46.6415 20.6784V20.6728C46.3733 14.819 41.516 10.1557 35.5656 10.1557C32.9872 10.1557 30.614 11.0298 28.7329 12.4984C26.6428 10.3085 23.687 8.94482 20.4112 8.94482C17.3481 8.94482 14.5644 10.1373 12.5075 12.0825L8.29025 9.65885C7.09906 8.97427 5.57492 9.38097 4.88684 10.5661L3.01311 13.7976C2.32503 14.9827 2.73381 16.4991 3.925 17.1837L7.92216 19.4785L5.59897 23.9062C4.96268 25.1208 5.43619 26.6187 6.65513 27.2536L11.8009 29.9238C12.5556 30.3177 13.4194 30.2864 14.1186 29.9183C14.5514 29.692 14.9195 29.3386 15.1618 28.8749L19.0683 21.4255L19.1257 21.3151C19.6917 20.3342 21.1178 19.9036 22.3793 21.0575C22.4717 21.1421 22.5291 21.258 22.5494 21.3813C22.6401 21.9242 22.6808 22.1598 22.6549 22.3935C22.6549 22.4192 22.653 22.445 22.6475 22.4726L22.1129 28.1038C21.9834 29.4675 22.9915 30.6765 24.3621 30.8053L24.9152 30.8569H24.9503L29.8797 31.3243C30.2441 31.3593 30.5974 31.3132 30.9229 31.201C31.82 30.8937 32.4989 30.0895 32.595 29.0865L33.2942 21.7365L33.3016 21.6427C33.396 20.6912 34.2024 19.9515 35.1846 19.9515C36.1668 19.9515 36.9695 20.6912 37.0676 21.6427L37.7538 28.2234C37.8962 29.5852 39.1189 30.5753 40.4895 30.4336L41.8101 30.2974L45.1026 29.9588C46.4732 29.8171 47.4665 28.597 47.3259 27.2371L46.6434 20.6802L46.6415 20.6784Z" fill="#F58220"/>
<path d="M118.92 21.7733V21.7678C118.651 15.9139 113.794 11.2507 107.846 11.2507C105.256 11.2507 102.876 12.1322 100.989 13.6118C98.895 11.4108 95.9318 10.0398 92.6486 10.0398C89.5967 10.0398 86.8203 11.2249 84.7635 13.1609L82.2516 11.7181C81.0604 11.0317 79.5363 11.4366 78.8482 12.6254L76.9708 15.8532C76.2827 17.0383 76.6915 18.5565 77.8826 19.2411L80.2021 20.5735L77.8789 24.9975C77.2445 26.212 77.7162 27.71 78.937 28.3449L84.0828 31.0151C84.8282 31.4034 85.6827 31.3795 86.3764 31.0225C86.8185 30.7961 87.1995 30.4373 87.4473 29.9662L91.3076 22.607C91.3076 22.607 91.3095 22.6014 91.3132 22.5959C91.3483 22.5168 91.3872 22.4413 91.4316 22.3696C91.4316 22.3677 91.4334 22.3641 91.4334 22.3622C91.9661 21.4918 93.1924 21.0851 94.3466 21.8948C94.6056 22.077 94.785 22.3548 94.8498 22.664C94.9348 23.0744 94.9589 23.2805 94.9367 23.4848L94.9293 23.5639L94.3947 29.1951C94.2653 30.5588 95.2733 31.7678 96.6439 31.8966L97.197 31.9482L102.158 32.4156C102.524 32.4505 102.877 32.4027 103.205 32.2923C104.102 31.9831 104.779 31.1771 104.873 30.1778L105.563 22.929C105.563 22.8131 105.574 22.7027 105.595 22.5978C105.748 21.7089 106.529 21.0354 107.463 21.0354C108.397 21.0354 109.194 21.7255 109.335 22.6309C109.348 22.699 109.355 22.7707 109.355 22.8407L110.03 29.3166C110.171 30.6784 111.395 31.6684 112.764 31.5267L114.086 31.3906L117.379 31.0519C118.749 30.9102 119.743 29.6901 119.602 28.3302L118.92 21.7733Z" fill="#F58220"/>
<path d="M42.1135 6.45373C42.9109 5.0284 42.3959 3.22981 40.9633 2.43648C39.5307 1.64315 37.7229 2.15549 36.9255 3.58082C36.1281 5.00616 36.6431 6.80474 38.0757 7.59807C39.5083 8.3914 41.3161 7.87906 42.1135 6.45373Z" fill="#F58220"/>
<path d="M47.2271 10.1737C48.7233 9.50656 49.3926 7.75901 48.7221 6.27042C48.0515 4.78183 46.295 4.11591 44.7988 4.78303C43.3026 5.45016 42.6333 7.19771 43.3038 8.68629C43.9744 10.1749 45.7309 10.8408 47.2271 10.1737Z" fill="#F58220"/>
<path d="M77.5153 8.9694C78.5394 7.69544 78.3315 5.83678 77.051 4.81797C75.7705 3.79916 73.9023 4.006 72.8783 5.27996C71.8543 6.55392 72.0622 8.41258 73.3427 9.43139C74.6232 10.4502 76.4913 10.2434 77.5153 8.9694Z" fill="#F58220"/>
<path d="M82.431 9.2908C84.0606 9.11045 85.2333 7.64928 85.052 6.02985C84.8707 4.40858 83.4021 3.24185 81.7744 3.42219C80.1448 3.60254 78.9721 5.06371 79.1534 6.68314C79.3346 8.30442 80.8033 9.47114 82.431 9.2908Z" fill="#F58220"/>
<path d="M96.594 16.6985C94.7646 15.4085 91.7608 15.0496 89.6762 15.8722C89.001 16.1115 88.2223 15.944 87.8986 15.3662C87.8376 15.2576 87.808 15.2042 87.747 15.0956C87.4233 14.5196 87.8598 13.6492 88.768 13.329C91.8699 12.2432 95.3269 12.6555 98.0811 14.4405C98.8876 14.9668 99.104 15.9146 98.6527 16.3986C98.5676 16.4906 98.525 16.5347 98.44 16.6267C97.9886 17.1107 97.1914 17.0905 96.5921 16.7004L96.594 16.6985Z" fill="#FFA85A"/>
<path d="M112.964 18.8389C111.362 17.2765 108.454 16.4502 106.266 16.9342C105.561 17.063 104.82 16.7759 104.592 16.1558C104.55 16.0398 104.527 15.9809 104.485 15.8632C104.257 15.243 104.825 14.4535 105.774 14.2787C109.009 13.6953 112.357 14.6468 114.793 16.8422C115.505 17.4881 115.568 18.4579 115.046 18.8646C114.948 18.9419 114.898 18.9787 114.8 19.056C114.279 19.4627 113.493 19.3174 112.966 18.837L112.964 18.8389Z" fill="#FFA85A"/>
<path d="M23.6871 15.6552C21.8207 14.4167 18.8094 14.1443 16.7489 15.024C16.0812 15.2816 15.2969 15.1362 14.9584 14.5694C14.8937 14.4627 14.8622 14.4093 14.7993 14.3026C14.459 13.7358 14.8715 12.8543 15.7704 12.5065C18.8409 11.3342 22.3072 11.6489 25.1132 13.3548C25.9344 13.8572 26.1767 14.7994 25.7402 15.2963C25.6588 15.3902 25.6163 15.4362 25.5349 15.53C25.0984 16.0269 24.2993 16.0287 23.6908 15.6552H23.6871Z" fill="#FFA85A"/>
<path d="M40.1343 17.7881C38.5529 16.2055 35.6563 15.3443 33.4607 15.8006C32.756 15.9221 32.0161 15.624 31.796 15.0001C31.7553 14.8824 31.7331 14.8235 31.6924 14.7075C31.4723 14.0837 32.0512 13.3016 33.002 13.1396C36.2445 12.5967 39.5794 13.5886 41.9896 15.8154C42.6943 16.4705 42.7442 17.4403 42.2171 17.8415C42.1172 17.9169 42.0673 17.9538 41.9692 18.0292C41.4421 18.4304 40.6597 18.274 40.1362 17.7881H40.1343Z" fill="#FFA85A"/>
<path d="M64.3411 10.5281C62.1844 10.3128 59.4617 11.0158 57.6804 12.2469C57.1033 12.6205 56.3283 12.5763 55.9047 12.0684C55.8252 11.9727 55.7845 11.9248 55.705 11.8292C55.2814 11.3212 55.4775 10.4526 56.1988 9.98337C58.6608 8.39154 61.6018 7.63151 64.5316 7.8321C65.3917 7.89283 65.9873 8.55716 65.8634 9.20494C65.8412 9.32639 65.8283 9.38896 65.8061 9.51042C65.684 10.16 65.0274 10.5741 64.3411 10.5262V10.5281Z" fill="#FFA85A"/>
<path d="M80.6181 14.2858L80.1501 15.0922C79.9678 15.4064 80.076 15.8082 80.3918 15.9896L82.2772 17.0726C82.593 17.254 82.9969 17.1464 83.1792 16.8322L83.6472 16.0257C83.8296 15.7115 83.7214 15.3097 83.4055 15.1283L81.5201 14.0453C81.2043 13.8639 80.8004 13.9715 80.6181 14.2858Z" fill="#FFA85A"/>
<path d="M6.5864 12.6133L6.33854 13.0405C6.09541 13.4594 6.23969 13.9952 6.66081 14.2371L8.51577 15.3026C8.93688 15.5445 9.47536 15.4009 9.71848 14.9819L9.96634 14.5548C10.2095 14.1359 10.0652 13.6001 9.64407 13.3582L7.78911 12.2927C7.368 12.0508 6.82953 12.1944 6.5864 12.6133Z" fill="#FFA85A"/>
<path d="M83.3337 7.61129C82.9286 6.9856 82.555 6.76293 81.8096 6.69668C81.5321 6.67275 81.2639 6.51449 81.2232 6.26422C81.2158 6.21637 81.2121 6.19429 81.2029 6.14644C81.1604 5.89616 81.4803 5.62748 81.9002 5.66429C83.0304 5.76366 83.5927 6.10227 84.2086 7.04817C84.438 7.39966 84.3473 7.8082 84.1069 7.88733C84.0606 7.90205 84.0385 7.90941 83.9922 7.92413C83.7499 8.00327 83.4835 7.84316 83.3337 7.60945V7.61129Z" fill="#FFA85A"/>
<path d="M76.2679 7.93699C75.946 7.44012 75.6501 7.26345 75.0582 7.21192C74.8381 7.19168 74.6254 7.06654 74.5921 6.86779C74.5865 6.83099 74.5828 6.81259 74.5773 6.77394C74.544 6.57519 74.7974 6.36172 75.1322 6.39116C76.0293 6.4703 76.4751 6.73898 76.9634 7.4898C77.1446 7.76952 77.0743 8.09341 76.882 8.15598C76.845 8.16886 76.8283 8.17438 76.7913 8.18542C76.599 8.24983 76.3881 8.12101 76.2679 7.93699Z" fill="#FFA85A"/>
<path d="M46.8395 8.6199C46.4344 7.99421 46.0607 7.77154 45.3153 7.70529C45.0379 7.68136 44.7697 7.5231 44.729 7.27282C44.7216 7.22498 44.7179 7.20289 44.7086 7.15505C44.6661 6.90477 44.9861 6.63425 45.406 6.6729C46.5361 6.77227 47.0984 7.11088 47.7144 8.05678C47.9437 8.40827 47.8531 8.81681 47.6126 8.89594C47.5664 8.91066 47.5442 8.91802 47.498 8.93274C47.2556 9.01371 46.9893 8.85177 46.8395 8.61806V8.6199Z" fill="#FFA85A"/>
<path d="M40.2897 5.72141C39.9679 5.22454 39.6719 5.04787 39.0801 4.99635C38.8599 4.9761 38.6472 4.85097 38.6139 4.65222C38.6084 4.61541 38.6047 4.59701 38.5991 4.55836C38.5658 4.35962 38.8192 4.14614 39.154 4.17559C40.0511 4.25472 40.4969 4.5234 40.9852 5.27423C41.1665 5.55395 41.0962 5.87783 40.9038 5.9404C40.8668 5.95328 40.8502 5.95881 40.8132 5.96985C40.6208 6.03242 40.41 5.90544 40.2897 5.72141Z" fill="#FFA85A"/>
<path d="M70.3286 20.1877C68.4327 20.5668 67.4931 20.7986 65.6378 21.3397C65.1847 21.4722 64.689 21.1299 64.5262 20.5668C64.4947 20.46 64.4799 20.4085 64.4503 20.3018C64.2876 19.7405 64.5317 19.1682 64.996 19.032C66.903 18.4762 67.8685 18.237 69.8181 17.8469C70.2935 17.7512 70.7762 18.145 70.8965 18.7173C70.9187 18.8259 70.9298 18.8792 70.952 18.9878C71.0722 19.5601 70.791 20.0938 70.3286 20.1858V20.1877Z" fill="#FFA85A"/>
</svg>
